<?xml version="1.0" standalone="no"?>
<!DOCTYPE svg PUBLIC "-//W3C//DTD SVG 20010904//EN"
 "http://www.w3.org/TR/2001/REC-SVG-20010904/DTD/svg10.dtd">
<svg version="1.0" xmlns="http://www.w3.org/2000/svg"
 width="128.000000pt" height="128.000000pt" viewBox="0 0 128.000000 128.000000"
 preserveAspectRatio="xMidYMid meet">
<metadata>
Created by potrace 1.11, written by Peter Selinger 2001-2013
</metadata>
<g transform="translate(0.000000,128.000000) scale(0.100000,-0.100000)"
fill="#000000" stroke="none">
<path d="M775 1120 l-59 -60 -78 0 c-45 0 -78 4 -78 10 0 6 35 10 84 10 91 0
121 14 59 27 -62 13 -184 7 -248 -11 -262 -77 -430 -313 -411 -581 5 -76 27
-161 59 -220 l14 -28 6 29 c16 83 99 146 184 142 l51 -3 6 46 c15 108 121 199
234 199 37 0 36 -3 16 46 -39 94 6 220 100 279 44 27 58 30 126 30 68 0 82 -3
126 -30 194 -120 124 -415 -106 -442 l-48 -6 14 -33 c8 -18 14 -46 14 -61 0
-27 1 -28 52 -25 41 2 62 -3 93 -20 44 -26 83 -78 92 -122 l6 -29 14 28 c46
87 57 138 57 277 l1 137 40 41 39 40 -57 58 -57 58 0 77 0 77 -78 0 -78 0 -59
60 c-33 33 -62 60 -65 60 -3 0 -32 -27 -65 -60z m-215 -213 c0 -1 -26 -27 -57
-57 l-58 -55 55 58 c50 53 60 62 60 54z"/>
</g>
</svg>
